<svg viewBox="0 0 512 512" xmlns="http://www.w3.org/2000/svg"><path fill="orange" d="m415.359375 276.023438c-6.714844-56.894532-32.632813-91.84375-36.128906-99.257813-32.730469 19.367187-45.359375 24.835937-64.441407 39.605469-23.210937-33.863282-46.820312-55.96875-48.601562-57.617188l-10.1875-9.425781-10.1875 9.425781c-1.792969 1.660156-25.679688 24.019532-49.027344 58.234375-19.566406-15.289062-32.710937-20.953125-65.226562-40.222656-3.605469 7.640625-29.332032 42.289063-36.097656 98.976563-16.382813-3.789063-33.28125-5.742188-50.460938-5.742188h-45v15c0 83.585938 45.824219 157.40625 114.171875 197h-114.171875v30h512v-30h-114.171875c68.269531-39.546875 114.171875-113.234375 114.171875-197v-15h-45c-17.589844 0-34.890625 2.054688-51.640625 6.023438zm-47.613281-57.988282c10.097656 21.085938 16.359375 43.890625 18.414062 67.0625-10.773437 4.1875-21.21875 9.226563-31.269531 15.066406-5.507813-20.855468-14.246094-40.515624-24.144531-58.175781 16.144531-12.902343 28.285156-18.660156 37-23.953125zm-111.746094-26.894531c19.542969 20.929687 61.277344 71.023437 72.277344 127.128906-31.941406 25.21875-57.339844 58.828125-72.277344 97.644531-14.917969-38.765624-40.316406-72.410156-72.277344-97.644531 11-56.109375 52.742188-106.203125 72.277344-127.128906zm-112.960938 26.894531c8.484376 5.164063 21.292969 11.246094 37.839844 24.625-9.746094 17.484375-18.332031 36.914063-23.769531 57.503906-10.414063-6.050781-21.257813-11.230468-32.4375-15.507812 2.089844-23.019531 8.335937-45.667969 18.367187-66.621094zm82.960938 263.964844c-103.054688 0-187.789062-80.355469-195.4375-182h14.4375c103.054688 0 187.789062 80.355469 195.4375 182zm60 0h-14.4375c7.648438-101.644531 92.382812-182.011719 195.4375-182.011719h14.4375c-7.648438 101.648438-92.382812 182.011719-195.4375 182.011719zm0 0"/><path fill="orange" d="m151 120h30v30h-30zm0 0"/><path fill="orange" d="m301 0h30v30h-30zm0 0"/><path fill="orange" d="m241 60h30v30h-30zm0 0"/><path fill="orange" d="m331 120h30v30h-30zm0 0"/><path fill="orange" d="m181 0h30v30h-30zm0 0"/></svg>